# xmcd
#
# Track frame offsets: 
#        150
#        16720
#        41810
#        69602
#        86120
#        108317
#        126975
#        147847
#        166067
#        180142
#        200177
#        211522
#        235947
#        272425
#        292035
#
# Disc length: 4158 seconds
#
# Revision: 0
# Processed by: cddbd v1.4PL0 Copyright (c) Steve Scherf et al.
# Submitted via: ExactAudioCopy v0.90b4
#
DISCID=d1103c0f
DTITLE=The Black Sorrows - Radio Waves Disc Two
DYEAR=1996
DGENRE=Blues
TTITLE0=Rise And Fall
TTITLE1=Better Times
TTITLE2=Bone Man
TTITLE3=Brown Eyed Girl
TTITLE4=Chained To The Wheel
TTITLE5=Come On, Come On
TTITLE6=Snake Skin Shoes
TTITLE7=Stella
TTITLE8=Corrine Corrina
TTITLE9=Fire Down Below
TTITLE10=Promised Land
TTITLE11=Down To The Sea
TTITLE12=Ain't Love The Strangest Thing
TTITLE13=Angel Street
TTITLE14=Crack Up
EXTD=
EXTT0=
EXTT1=
EXTT2=
EXTT3=
EXTT4=
EXTT5=
EXTT6=
EXTT7=
EXTT8=
EXTT9=
EXTT10=
EXTT11=
EXTT12=
EXTT13=
EXTT14=
PLAYORDER=
